<svg xmlns="http://www.w3.org/2000/svg" viewBox="0 0 448 512"><!--! Font Awesome Free 6.4.0 by @fontawesome - https://fontawesome.com License - https://fontawesome.com/license/free (Icons: CC BY 4.0, Fonts: SIL OFL 1.1, Code: MIT License) Copyright 2023 Fonticons, Inc. --><path fill="#D97706" d="M96 0C78.3 0 64 14.3 64 32v51.3c0 14.2 4.4 28.1 12.6 39.7l93.1 131.5C148.4 271.8 128 301.7 128 334.3V384H32c-17.7 0-32 14.3-32 32s14.3 32 32 32H416c17.7 0 32-14.3 32-32s-14.3-32-32-32H320V334.3c0-32.6-20.4-62.5-41.7-80.8l93.1-131.5c8.2-11.6 12.6-25.5 12.6-39.7V32c0-17.7-14.3-32-32-32H96z"/></svg>
